REM MD5 44d3c7313ebf46a0533454ac6ee75e26
FILE "Hugo (Spain).bin" BINARY
  TRACK 01 MODE2/2352
    INDEX 01 00:00:00
  TRACK 02 AUDIO
    INDEX 00 24:22:32
    INDEX 01 24:24:32
  TRACK 03 AUDIO
    INDEX 00 26:33:61
    INDEX 01 26:35:61
  TRACK 04 AUDIO
    INDEX 00 28:14:34
    INDEX 01 28:16:34
  TRACK 05 AUDIO
    INDEX 00 29:28:57
    INDEX 01 29:30:57
REM LEADOUT 32:30:58
